<?xml version="1.0" encoding="UTF-8"?>
<!DOCTYPE svg PUBLIC "-//W3C//DTD SVG 1.1//EN" "http://www.w3.org/Graphics/SVG/1.1/DTD/svg11.dtd">
<!-- Creator: CorelDRAW 2020 (64-Bit) -->
<svg  xmlns="http://www.w3.org/2000/svg"   version="1.1" style="shape-rendering:geometricPrecision; text-rendering:geometricPrecision; image-rendering:optimizeQuality; fill-rule:evenodd; clip-rule:evenodd"
viewBox="0 0 17000 19000"
 xmlns:xlink="http://www.w3.org/1999/xlink"
 xmlns:xodm="http://www.corel.com/coreldraw/odm/2003">
<defs>
 <style type="text/css">
        svg path{
            fill: teal;
            stroke: white;
            stroke-width: 7em;
            width: 29%;
            margin: auto;
            transition: fill 0.3s;
            background-color:white;
        }
        path:hover{
            fill:tomato;
        }


</style>
</defs>


   <path id="1"  d="M1249.47 1033.17c1020.8,111.9 2041.6,222.11 3062.4,332.31 1020.8,110.2 2041.6,220.42 3063.85,330.62 0,817.22 0,1634.44 0,2449.96 -91.35,-6.79 -181.25,-15.26 -274.05,-22.05 -43.51,-3.38 -243.6,-15.25 -269.7,-23.73 -624.95,-52.56 -1251.49,-101.74 -1874.86,-152.6 -623.63,-50.87 -1248.44,-103.42 -1871.94,-155.98 0,233.98 0,466.26 0,698.54 -348,-25.44 -694.56,-52.56 -1041.1,-77.99 -230.55,-16.96 -461.1,-33.92 -691.65,-50.87 0,-193.29 0,-388.27 0,-583.24 -34.8,-3.39 -69.6,-5.09 -102.95,-10.18 0,-910.46 0,-1822.62 0,-2734.79z"/>
   <path id="2" d="M14657.62 2482.8c362.49,39 726.44,77.99 1090.4,116.98 0,6.79 0,11.88 0,16.96 0,3.39 0,8.48 0,11.87 -627.86,574.77 -1254.25,1156.31 -1880.65,1748.03 -118.9,110.2 -237.81,218.71 -356.7,328.92 -114.55,-47.47 -227.66,-100.03 -342.2,-150.9 -21.75,-6.78 -42.05,-13.56 -62.35,-18.64 -23.2,0 -46.4,-1.7 -69.6,-1.7 -155.15,0 -307.4,25.43 -461.1,38.99 -732.25,-59.34 -1463.05,-118.68 -2193.85,-179.72 -58,-3.39 -114.55,-8.47 -171.1,-11.86 0,-793.49 0,-1585.27 0,-2378.75 429.2,45.78 858.4,91.56 1287.6,139.03 1052.7,113.59 2105.4,227.19 3159.55,340.79z"/>
   <path  d="M15748.02 4719.12c0,579.86 0,1159.71 0,1737.86 -607.55,-37.3 -1215.1,-76.3 -1822.65,-113.6 -607.54,-37.3 -1215.1,-76.29 -1822.65,-115.29 1.45,-8.48 7.25,-10.17 14.5,-16.95 10.15,-6.79 8.7,-5.09 15.95,-15.26 1154.2,-1068.15 2360.6,-2054.91 3498.85,-3078.98 27.55,-23.73 56.55,-49.16 85.55,-76.29 8.7,-5.09 18.85,-18.65 30.45,-20.35 0,566.29 0,1132.57 0,1697.17 0,1.69 0,1.69 0,1.69z"/>
   <path  d="M15617.52 6448.5c43.5,3.4 87,5.09 130.5,8.48 0,564.59 0,1130.88 0,1695.47 0,349.27 0,695.14 0,1041.02 -854.05,-25.43 -1706.65,-52.56 -2560.7,-79.69 -60.9,-1.69 -56.55,-6.78 -78.31,15.26 -62.34,61.04 -126.14,120.38 -187.04,184.81 -60.9,59.34 -424.85,450.99 -510.4,505.25 -14.51,-3.39 -1387.65,-1468.28 -1399.25,-1480.15 -5.81,-8.48 -15.95,-13.57 -18.85,-25.43 52.2,-81.38 603.2,-601.89 685.85,-681.58 5.79,-5.08 13.05,-11.87 20.3,-20.34 -100.05,-78 -352.35,-373.01 -453.85,-490 -7.26,-10.17 -18.85,-27.12 -30.45,-28.82 0,-1.7 0,-3.39 0,-6.78 17.4,-3.39 742.39,-730.75 846.8,-820.61 17.4,-16.95 33.35,-37.3 47.85,-37.3 44.95,1.7 89.9,5.09 134.85,6.78 14.5,1.7 29,3.39 43.5,3.39 827.94,52.56 1655.89,103.42 2483.84,155.99 281.3,18.65 562.6,35.6 845.36,54.25z"/>
   <path  d="M12411.57 9820.79c-146.46,145.81 -291.45,293.32 -436.46,440.83 -40.59,20.34 -81.19,44.08 -120.34,62.72 -94.25,23.74 -188.5,45.78 -282.75,67.82 -8.7,-5.08 -17.4,-11.86 -26.1,-18.64 -574.2,-606.99 -1148.4,-1220.74 -1721.15,-1841.29 -1.46,0 -2.9,-1.69 -2.9,-3.38 -4.35,-5.09 -7.26,-6.79 -10.15,-10.18 -1.45,0 -1.45,-1.69 -1.45,-3.39 453.85,-466.26 907.7,-927.42 1363,-1385.2 14.5,-13.56 29,-28.82 44.95,-42.38 10.15,10.17 20.29,22.04 31.9,32.21 150.8,164.46 303.04,328.92 455.3,493.38 -4.36,3.39 -8.7,8.48 -11.61,11.87 -2.89,3.39 -4.34,5.09 -5.79,6.78 -226.21,220.41 -490.1,442.51 -688.75,688.36 4.35,3.39 8.7,8.48 13.05,13.57 23.2,23.73 46.4,49.16 71.05,72.9 0,1.69 0,3.39 1.45,3.39 442.25,474.73 884.5,946.07 1326.75,1410.63z"/>
   <path  d="M14406.77 9151.08c427.75,13.57 856.95,27.13 1286.15,40.69 0,634.11 0,1269.91 0,1902.32 0,632.41 0,1266.51 0,1898.93 -1074.45,13.56 -2150.34,27.97 -3223.35,42.38 -1072.98,14.41 -2148.9,28.83 -3221.9,42.39 10.15,-6.78 20.29,-15.26 31.9,-25.44 638,-673.09 1274.9,-1338.52 1915.45,-1990.47 635.45,-646.79 1278.9,-1281.78 1918.35,-1909.1 15.95,-11.87 31.9,-25.43 47.85,-40.69 414.7,13.56 829.4,25.43 1245.55,38.99z"/>
   <path  d="M13855.77 13015.06c630.75,-8.48 1261.5,-16.96 1893.7,-25.44 0,684.98 0,1371.64 0,2056.61 0,683.27 0,1368.24 0,2051.52 -758.35,47.47 -1515.26,93.25 -2272.15,140.72 -629.3,37.3 -1260.05,76.3 -1887.9,115.29 -627.85,39 -1257.15,76.3 -1885,115.3 -236.35,13.56 -472.7,28.82 -709.06,44.08 -10.14,-27.13 -18.84,-57.65 -27.54,-84.77 -201.55,-674.81 -404.79,-1351.23 -606.1,-2029.48 -201.77,-679.81 -406,-1364.85 -609,-2054.92 -7.26,-23.73 -13.05,-47.46 -18.85,-72.9 31.9,-57.64 65.25,-116.99 98.6,-174.63 617.7,-10.17 1236.84,-16.96 1856,-25.43 694.55,-10.17 1389.09,-19.5 2083.65,-28.83 694.53,-9.31 1389.1,-16.95 2083.65,-27.12z"/>
   <path  d="M8728.57 10397.25c369.75,400.13 739.5,795.18 1110.69,1188.52 37.71,40.69 76.86,79.69 116,118.69 73.95,79.69 147.91,157.67 221.86,233.97 1.44,3.39 2.9,5.09 5.8,6.78 7.25,6.79 14.5,15.26 21.75,22.05 1.45,32.21 2.9,62.73 5.8,91.55 -1.45,8.48 -2.9,13.56 -2.9,20.35 -205.9,223.8 -419.05,444.21 -629.3,668.01 -39.15,32.22 -78.31,61.04 -117.45,91.56 -52.21,33.9 -104.4,67.82 -155.15,100.03 -42.05,15.26 -82.65,32.21 -123.25,47.47 -4.36,1.7 -8.7,0 -11.6,0 -1.46,0 -2.9,0 -4.35,0 -433.55,6.79 -865.66,5.09 -1299.2,5.09 -36.25,0 -72.51,-1.7 -107.3,-3.39 -36.25,1.69 -72.51,1.69 -108.75,1.69 -55.11,-188.2 -111.65,-379.78 -163.85,-569.67 -14.51,-50.87 -29,-101.73 -43.5,-154.29 -4.36,-18.66 -7.25,-37.3 -10.15,-57.65 -59.45,-359.44 -47.85,-262.8 -34.8,-617.15 2.9,-16.95 7.24,-33.91 11.6,-54.25 14.5,-72.91 30.45,-145.82 46.4,-220.41 73.94,-194.98 102.95,-274.67 204.45,-456.08 271.15,-374.7 395.85,-564.6 688.74,-869.78 7.26,8.48 14.51,15.26 23.21,22.04 110.2,120.38 220.4,240.75 330.6,359.44 0,3.39 1.44,5.08 2.9,6.78 7.24,6.78 14.5,11.87 21.75,18.65z"/>
   <path  d="M3224.37 9006.96c143.54,3.4 287.1,8.49 432.09,11.87 191.4,6.79 384.26,11.87 577.11,16.96 0,900.29 0,1800.59 0,2699.18 0,10.18 0,18.66 0,27.13 0,8.48 0,16.96 0,25.44 0,8.47 0,16.95 0,25.43 0,10.17 0,18.64 0,27.13 0,6.77 0,15.26 0,23.73 0,10.17 0,18.65 0,27.13 0,8.48 0,15.26 0,23.73 0,10.18 0,18.66 0,27.13 0,10.18 0,16.96 0,25.44 0,8.47 0,16.95 0,25.43 0,10.17 0,18.64 0,27.13 0,10.17 0,18.65 0,27.12 0,8.48 0,16.96 0,23.74 0,10.17 0,18.65 0,27.13 0,8.48 0,16.95 0,23.74 0,10.17 0,18.64 0,27.12 0,8.48 0,15.26 0,22.04 0,20.35 0,40.69 0,59.35 -1.45,6.77 -2.9,11.86 -4.35,16.94 -194.3,161.08 -388.6,322.15 -582.9,483.22 -8.7,8.47 -17.4,15.26 -26.1,22.04 -8.7,6.78 -14.5,11.87 -24.65,18.65 -72.5,61.03 -145.01,122.07 -217.5,183.11 -31.9,25.43 -29,22.04 -72.5,37.3 -129.06,52.56 -256.65,103.42 -384.25,155.99 -21.75,11.86 -27.55,15.25 -46.4,15.25 -8.7,0 -17.4,0 -24.65,1.69 -498.8,6.79 -997.61,11.87 -1496.4,18.66 0,-252.63 0,-503.56 0,-757.87 0,-230.59 0,-461.17 0,-693.45 0,-1064.76 0,-2131.21 0,-3195.97 0,-288.22 0,-576.45 0,-864.68 572.75,23.73 1146.95,47.47 1721.15,71.2 0,-215.32 0,-432.34 0,-649.36 0,-76.29 0,-154.29 0,-232.28 49.3,1.7 98.6,5.09 149.35,6.79 0,172.93 0,344.18 0,515.41 0,61.04 0,122.08 0,183.12 0,217.02 0,432.34 0,649.36 0,264.49 0,528.99 0,791.78z"/>
   <path  d="M4217.62 6475.63c0,147.5 0,295.02 0,440.82 -332.05,-16.95 -664.1,-33.91 -996.15,-50.86 0,715.49 0,1430.97 0,2144.77 336.39,11.86 672.8,20.34 1009.2,30.52 0,539.16 0,1078.31 0,1619.17 4.35,-3.39 10.15,-8.48 15.95,-13.56 707.6,-774.83 1425.35,-1595.44 2143.1,-2312.62 4.35,-3.4 10.15,-10.18 15.95,-16.96 43.5,-44.08 87,-91.55 130.5,-139.03 0,0 0,0 1.44,-1.7 11.61,-11.86 23.21,-23.73 34.81,-35.6 2.9,-3.39 5.79,-6.78 8.7,-10.17 2.9,-3.39 5.79,-5.09 10.15,-8.48 0,-1.7 1.45,-3.39 2.9,-5.09 4.35,-5.08 8.69,-8.47 14.5,-15.25 2.89,-3.39 5.8,-6.79 10.15,-8.48 2.9,-3.4 5.8,-8.48 10.14,-13.57 -4.34,-5.09 -8.7,-10.17 -11.59,-13.56 -11.6,-11.87 -23.2,-25.43 -34.8,-38.99 0,0 0,-1.7 0,-3.4 -1.45,0 -1.45,0 -1.45,-1.69 -456.75,-527.29 -943.95,-1071.54 -1407.95,-1612.39 -2.9,-1.7 -5.8,-5.09 -7.25,-8.48 -27.56,-32.22 -55.1,-61.03 -81.2,-94.95 -2.9,-1.69 -4.36,-3.39 -5.8,-5.09 -2.9,-3.38 -5.8,-6.77 -7.25,-10.17 -2.9,-1.69 -5.8,-5.09 -7.26,-8.47 -4.34,-3.39 -8.7,-6.79 -11.59,-11.87 -1.45,0 -1.45,0 -1.45,-1.7 -8.7,-8.48 -15.95,-18.65 -23.2,-28.82 -7.25,-5.09 -14.5,-11.87 -21.76,-15.26 -204.44,66.12 -408.89,128.86 -611.89,196.68 -59.45,16.95 -118.9,35.6 -176.9,54.25z"/>
   <path  d="M3183.77 6868.98c345.1,16.95 691.65,35.6 1038.2,52.56 0,-145.81 0,-293.32 0,-440.83 237.79,-76.29 475.6,-152.59 713.4,-227.19 24.65,-8.48 49.3,-15.26 75.4,-25.43 535.05,620.54 1039.65,1197 1564.55,1795.5 1.45,3.4 2.89,6.79 5.8,8.48 5.79,8.48 13.05,13.57 20.3,22.04 8.7,8.48 17.4,16.96 27.54,25.43 7.25,-5.09 14.51,-13.56 21.76,-20.34 52.19,-54.26 104.4,-110.2 158.05,-164.47 362.5,-376.38 725,-752.78 1087.5,-1122.4 52.2,-52.55 104.4,-106.81 158.05,-161.06 5.79,-8.48 13.05,-16.96 20.3,-27.13 -471.25,-534.08 -942.5,-1074.92 -1412.3,-1619.17 2.9,-1.7 5.8,-6.79 8.7,-11.87 2.9,-3.39 7.24,-6.78 11.6,-10.18 1.45,-1.69 2.9,-3.38 5.8,-6.78 15.95,-16.95 31.9,-32.21 47.84,-50.86 178.36,-159.37 362.51,-364.52 535.06,-537.47 0,0 1.45,-1.69 2.89,-3.38 27.56,-25.44 55.11,-54.26 84.11,-81.39 1.45,-3.39 4.35,-8.48 7.24,-13.56 -668.44,-54.26 -1337.03,-108.53 -2003.9,-162.77 -667.13,-54.26 -1336.89,-110.2 -2005.34,-162.76 -4.35,8.47 -8.7,18.65 -11.6,27.13 -52.21,100.03 -104.4,200.06 -155.15,300.09 -1.45,61.04 -2.9,120.39 -2.9,178.03 0,813.83 -2.9,1627.65 -2.9,2439.78z"/>
   <path  d="M6627.52 8079.54c8.69,20.35 39.15,47.48 53.65,66.13 129.04,145.81 259.55,289.92 390.05,435.73 2.9,3.4 2.9,3.4 5.8,6.78 5.8,6.79 7.25,10.18 14.49,16.96 37.71,42.39 75.4,86.47 114.56,127.16 7.25,8.47 7.25,8.47 13.05,16.96 1.45,0 2.9,1.69 2.9,1.69 87,98.34 174,193.29 261,289.93 0,0 0,0 0,0 39.14,44.08 78.3,88.16 118.9,132.24 0,0 1.45,0 1.45,1.7 0,0 1.44,1.69 1.44,1.69 0,1.7 1.46,1.7 4.36,5.09 2.9,1.69 2.9,1.69 5.8,3.39 4.35,5.09 2.9,3.39 5.8,8.48 4.35,5.08 8.69,10.17 13.05,15.26 0,0 0,1.7 1.45,1.7 23.2,27.12 46.4,52.55 71.05,76.29 0,1.69 0,1.69 1.45,1.69 8.7,11.87 18.85,22.04 28.99,33.91 43.51,50.87 88.46,98.34 130.51,144.12 69.6,77.99 137.75,150.89 207.35,227.19 15.95,16.95 31.9,35.61 47.85,50.87 0,1.69 1.45,3.39 1.45,5.08 34.8,37.3 71.05,76.3 107.3,115.29 8.7,8.48 15.95,16.96 24.65,27.13 4.35,5.09 2.89,3.39 7.25,6.78 4.34,5.09 1.45,3.4 5.8,8.48 10.15,8.48 2.9,5.09 15.95,11.87 4.35,-3.39 7.24,-5.09 11.6,-8.48 20.29,-22.04 40.6,-44.08 60.9,-66.12 2.9,-3.39 1.45,-1.7 5.8,-3.39 15.95,-16.96 33.35,-35.6 50.75,-54.26 4.35,-5.09 1.44,-3.39 5.8,-8.47 2.9,-1.7 5.8,-5.09 8.7,-8.48 1.45,0 1.45,-1.7 2.9,-1.7 1.44,-3.39 2.9,-3.39 4.35,-6.78 24.65,-23.74 49.3,-49.17 75.4,-76.3 15.95,-16.95 28.99,-30.52 44.94,-47.47 31.91,-30.52 60.91,-61.04 91.35,-93.25 4.36,-5.09 520.56,-534.07 540.86,-561.2 15.95,-20.35 34.8,-35.61 50.75,-52.56 2.9,-3.39 2.9,-3.39 5.8,-6.78 4.35,-3.4 7.24,-8.48 11.6,-10.17 15.95,-16.96 33.35,-35.61 50.75,-54.26 2.89,-3.39 2.89,-3.39 4.35,-5.09 4.35,-3.39 2.9,-1.69 7.24,-5.08 1.46,-1.7 1.46,-1.7 5.81,-6.79 24.65,-25.43 50.75,-52.55 76.84,-77.98 0,0 1.46,-1.7 1.46,-1.7 8.7,-8.48 17.4,-18.65 27.55,-28.82 1.45,-1.7 2.9,-1.7 2.9,-3.4 39.15,-38.99 78.3,-77.99 117.45,-118.68 56.54,-50.87 107.29,-106.82 159.5,-161.07 7.25,-8.47 17.4,-15.26 20.3,-25.43 -15.95,-25.43 -332.05,-362.83 -387.16,-425.56 -13.04,-15.26 -26.09,-28.83 -37.69,-44.09 -7.25,-6.77 -5.8,-5.08 -13.06,-15.26 -21.74,-22.03 -43.49,-45.78 -63.79,-69.51 -5.8,-5.08 -8.7,-8.47 -13.05,-13.56 -2.9,-5.09 -2.9,-3.4 -5.81,-6.78 0,0 -1.44,-1.7 -2.89,-3.39 -95.71,-105.13 -189.95,-208.55 -284.2,-313.67 -2.9,-3.39 -2.9,-3.39 -5.8,-8.48 -2.9,-1.69 -4.36,-1.69 -7.25,-5.08 -11.6,-13.57 -23.2,-27.13 -34.8,-40.69 0,0 0,-1.69 0,-1.69 -60.9,-66.13 -121.8,-133.95 -182.7,-201.77 -2.91,-3.39 -4.35,-3.39 -7.25,-6.78 -20.31,-23.74 -40.6,-45.78 -60.9,-69.51 -2.9,-3.39 -1.46,-1.7 -2.9,-5.09 -130.51,-142.42 -261,-288.23 -391.5,-434.04 -24.65,-27.13 -137.75,-161.07 -156.6,-174.63 -13.06,3.39 -79.76,77.99 -89.9,88.16 -211.7,217.02 -423.4,434.04 -635.11,651.06 -120.34,122.08 -239.25,249.24 -359.59,373.01 -63.8,66.12 -126.15,130.54 -185.6,196.66 -7.25,6.79 -13.05,11.88 -18.85,18.66 -2.9,1.69 -1.45,1.69 -4.35,5.09 -43.51,45.77 -87,91.55 -130.5,137.33 -1.45,0 -1.45,1.7 -1.45,1.7 0,0 -1.45,-1.7 -1.45,0 -2.9,3.38 -5.8,6.77 -8.7,8.47 -5.8,3.39 -5.8,5.09 -10.15,13.56z"/>
   <path  d="M9017.12 4441.07c404.55,462.86 812,917.24 1215.1,1371.63 4.34,6.78 10.15,11.87 15.95,16.95 1.45,3.4 2.9,5.09 5.79,6.79 10.16,13.56 21.76,27.13 33.36,38.99 -7.25,10.17 -14.5,18.66 -21.75,25.43 -7.25,8.49 -14.5,15.26 -21.75,22.05 -15.96,15.26 -30.45,28.82 -44.95,44.08 -430.65,423.87 -858.4,868.08 -1296.3,1291.94 -1.45,1.7 -2.9,3.4 -4.35,5.09 -27.56,27.13 -55.1,55.95 -81.2,83.08 -2.9,1.7 -4.36,3.39 -5.8,3.39 -1.45,3.39 -2.9,5.09 -4.35,6.78 -8.7,8.48 -17.4,15.26 -24.65,23.74 -5.8,-5.08 -10.16,-6.78 -14.5,-11.87 -1.45,-1.7 -2.9,-5.08 -4.36,-6.78 -2.89,-1.69 -4.34,-3.39 -5.79,-5.09 -20.3,-22.04 -40.6,-45.77 -60.9,-69.51 -1.45,0 -1.45,0 -1.45,-1.7 -436.46,-486.6 -868.55,-985.07 -1307.9,-1476.75 -1.45,0 -2.9,-3.39 -2.9,-5.09 -7.25,-6.78 -14.5,-15.26 -20.3,-23.73 43.5,-45.78 88.45,-89.87 133.39,-135.64 390.06,-395.05 783.01,-783.31 1171.61,-1173.27 26.1,-18.64 52.2,-40.69 78.29,-62.73 14.51,-3.39 29.01,-6.78 44.96,-11.86 21.75,-3.4 43.5,-8.49 66.7,-13.57 1.45,1.7 2.9,1.7 4.34,1.7 33.36,1.69 76.86,3.38 108.76,10.17 14.49,16.96 29,30.52 44.95,45.78 0,0 0,0 0,0z"/>
   <path  d="M8426.97 4493.63c33.35,3.39 68.15,5.08 102.95,6.78 24.65,13.56 49.3,27.12 75.4,37.3 -7.26,8.48 -14.5,16.95 -21.75,27.13 -378.45,367.91 -751.1,747.7 -1126.65,1125.78 -2.9,3.4 -5.8,6.79 -7.25,10.18 -23.2,22.04 -44.95,44.09 -66.7,66.12 -1.46,1.7 -2.9,3.4 -4.35,3.4 -4.35,5.08 -8.7,8.47 -13.06,11.86 -232,-264.49 -464,-530.68 -694.54,-798.57 -1.46,-1.69 -2.9,-3.38 -4.35,-5.08 -4.35,-5.09 -7.25,-8.48 -10.15,-13.56 8.7,-10.18 18.85,-22.05 29,-33.91 188.5,-189.89 433.55,-412 616.25,-620.54 15.95,-16.96 33.35,-33.92 50.75,-52.56 4.34,-1.7 8.7,-5.09 13.04,-8.48 18.86,20.34 39.16,40.69 59.46,59.34 34.8,3.39 69.6,5.09 105.84,10.17 123.25,10.18 246.51,20.35 371.21,30.52 43.5,13.56 87,28.82 131.95,42.39 146.45,45.78 240.69,72.9 392.95,101.73z"/>
   <path  d="M10282.97 5878.83c15.95,25.43 33.35,52.55 50.75,76.29 4.35,8.48 8.7,16.95 14.5,23.74 147.9,306.87 172.55,384.87 233.45,739.22 8.7,213.63 -2.9,345.88 -39.16,551.03 -24.65,76.3 -49.3,154.28 -72.49,228.89 -36.25,74.6 -71.05,149.2 -105.85,220.41 -203,211.93 -406,422.17 -607.56,635.8 -17.39,16.95 -34.79,32.21 -50.74,47.47 -8.7,-8.48 -15.96,-16.95 -23.21,-23.73 -1.44,0 -1.44,0 -1.44,-1.7 -5.8,-6.78 -11.6,-11.86 -17.4,-18.65 -294.35,-322.14 -588.7,-647.67 -883.06,-974.9 2.91,-3.38 5.81,-10.17 8.71,-16.95 5.8,-3.39 11.6,-8.48 17.4,-15.26 2.9,-3.39 5.79,-6.78 10.15,-10.17 2.9,-3.39 5.8,-6.78 8.7,-10.17 452.4,-456.09 906.24,-910.47 1360.1,-1358.08 1.44,-1.69 2.9,-3.39 5.8,-6.77 2.9,-1.7 5.8,-5.09 8.7,-8.49 2.89,-1.69 7.25,-5.08 11.59,-8.47 23.21,-22.05 46.41,-45.78 71.06,-69.51z"/>
   <path  d="M8263.12 9892c-11.6,13.56 -21.75,27.13 -31.9,39 -1.45,1.69 -2.9,1.69 -2.9,1.69 0,0 0,0 0,0 -10.15,13.56 -18.86,23.74 -27.56,32.22 -4.34,3.39 -8.7,10.17 -11.59,13.56 -17.4,16.96 -34.8,35.61 -50.75,50.86 -8.7,10.18 -17.4,18.65 -24.65,28.82 -359.61,412.01 -742.4,983.38 -1077.35,1442.85 -5.8,10.18 -10.16,15.26 -14.5,22.04 -8.7,13.57 -17.4,27.13 -26.1,40.7 -7.25,-5.09 -13.05,-8.49 -18.85,-11.87 -49.3,-54.26 -98.6,-108.52 -147.9,-162.77 -507.51,-593.41 -1051.25,-1163.09 -1579.05,-1751.42 -1.45,-1.69 -2.9,-3.39 -4.36,-5.09 0,0 0,0 0,-1.69 -10.14,-8.48 -20.29,-18.65 -28.99,-30.52 -2.91,-1.69 -4.35,-5.08 -5.8,-8.48 1.45,-5.09 4.35,-10.17 7.25,-15.26 0,0 0,0 1.45,0 0,0 1.44,1.7 2.9,0 0,0 0,-1.69 1.45,-3.39 17.4,-18.65 34.8,-37.3 52.2,-55.95 2.89,-3.39 5.8,-6.78 10.15,-11.87 2.9,-1.69 5.8,-6.78 10.14,-11.86 1.46,-1.7 2.91,-1.7 5.81,-5.09 0,0 0,0 1.44,0 427.76,-459.47 852.6,-915.55 1278.91,-1364.85 0,0 1.45,-1.7 2.9,-3.4 1.44,-1.69 2.9,-3.39 5.8,-5.08 2.9,-5.09 7.25,-10.18 11.59,-13.56 0,0 1.46,0 2.91,-1.7 2.9,-3.39 7.25,-8.48 11.6,-11.87 0,0 0,0 1.45,-1.69 0,0 0,0 1.44,-1.7 1.46,-1.69 4.36,-3.39 7.26,-6.78 7.25,8.48 15.95,16.95 24.65,23.74 0,1.69 0,3.38 0,3.38 539.39,598.51 1075.9,1197.01 1610.95,1787.03z"/>
   <path  d="M5967.77 10434.55c342.2,378.09 682.95,752.79 1023.7,1125.79 -14.5,23.74 -29,45.78 -43.5,66.12 -23.2,32.22 -46.41,64.44 -69.6,93.26 -5.8,8.48 -11.6,16.95 -15.95,23.74 -4.35,5.08 -7.25,10.17 -10.16,13.56 -159.49,223.8 -320.44,447.6 -478.49,671.4 -8.7,-5.08 -17.4,-11.87 -24.65,-20.34 -143.56,-155.99 -287.1,-310.27 -429.2,-466.26 -213.15,233.98 -427.75,473.04 -643.8,710.4 -21.76,23.75 -43.5,47.48 -65.25,69.52 -4.35,-3.39 -8.7,-6.78 -13.05,-11.87 -213.15,-233.97 -426.3,-471.34 -640.9,-708.71 -18.85,-18.64 -36.25,-40.69 -53.65,-62.73 1.45,-3.39 4.35,-5.08 7.25,-10.17 466.9,-520.51 935.25,-1041.02 1406.49,-1544.57 15.95,16.95 33.35,35.6 50.76,50.86z"/>
   <path  d="M4232.12 12241.92c8.7,-3.39 11.6,-8.48 17.4,-15.26 14.5,-15.26 28.99,-33.91 43.5,-52.55 18.85,-18.66 37.7,-35.61 55.1,-57.65 7.25,-8.48 14.5,-16.96 21.75,-23.74 4.35,-5.09 5.8,-6.78 8.7,-11.87 272.6,-303.49 545.19,-605.28 817.79,-907.07 1.46,0 2.91,-1.7 4.36,-3.4 2.9,-3.39 5.8,-8.47 10.15,-13.56 -4.35,-6.78 -8.7,-13.56 -13.05,-20.34 -2.9,-3.39 -2.9,-3.39 -5.8,-5.09 -158.05,-174.63 -348,-406.92 -690.21,-769.75 -50.75,37.31 -217.49,235.67 -259.54,283.15 -7.25,8.47 -8.7,8.47 -10.15,20.35 0,484.9 0,971.5 0,1456.41 0,6.78 0,11.86 0,16.95 0,6.78 0,13.56 0,18.65 0,6.78 0,11.87 0,16.96 0,5.08 0,10.17 0,15.25 0,6.78 0,13.57 0,18.65 0,6.79 0,11.87 0,16.96 0,5.09 0,11.86 0,16.95z"/>
   <path  d="M3079.37 6777.42c0,322.14 0,644.29 0,968.12 -575.65,-23.74 -1151.31,-47.47 -1726.95,-71.22 0,-1105.44 0,-2209.19 0,-3314.64 230.55,16.96 461.1,33.91 691.65,50.87 345.1,25.43 690.2,52.56 1036.75,77.99 -1.45,54.25 -1.45,106.81 -1.45,161.07 -1.46,10.17 -5.8,10.17 -7.25,15.26 13.05,10.17 7.25,25.43 7.25,49.17 1.45,18.65 1.45,38.99 1.45,57.65 0,44.08 -7.25,64.42 -4.35,108.5 0,289.93 0,578.16 1.44,866.39 -5.79,64.43 0,213.63 0,286.53 0,152.6 -1.44,306.89 1.46,461.17 0,94.95 0,189.89 0,283.14z"/>
   <path  d="M10210.47 2001.29c-945.4,-103.43 -1890.8,-205.16 -2836.2,-306.88 0,812.13 0,1624.26 0,2434.69 211.7,18.65 424.85,35.6 638,52.56 20.3,8.48 40.6,13.56 60.9,18.65 5.8,3.39 13.05,5.09 20.29,8.47 145.01,40.7 291.46,79.7 437.9,120.39 23.21,1.69 46.41,3.38 69.61,5.08 15.95,0 31.9,-1.7 47.85,-3.39 201.55,-28.82 403.1,-59.34 606.1,-89.86 13.04,-3.39 26.1,-5.09 40.6,-8.47 230.55,20.34 259.55,33.9 482.85,100.02 78.29,10.18 156.6,22.05 236.35,33.92 65.24,3.39 130.49,10.17 195.75,15.26 0,-793.49 0,-1586.97 0,-2380.44z"/>
   <path  d="M8326.92 9968.3c1.45,3.39 2.9,6.78 4.35,8.47 7.25,6.79 14.5,15.26 23.2,22.05 603.2,654.44 1213.65,1305.5 1819.75,1946.39 30.45,10.18 60.9,20.35 92.8,30.52 4.35,-1.69 8.7,0 14.5,0 10.15,0 20.3,-1.69 31.9,0 18.85,-15.26 37.7,-28.82 58,-44.08 5.79,-6.78 13.05,-15.26 20.3,-22.04 350.9,-373 700.35,-742.62 1051.25,-1110.53 26.1,-59.35 52.19,-120.38 79.75,-183.11 11.6,-61.04 24.65,-123.77 37.69,-184.81 -17.39,-35.6 -34.79,-69.52 -52.19,-103.42 -8.7,-8.48 -17.4,-18.66 -24.65,-25.43 -4.35,-6.79 -8.7,-10.18 -13.06,-15.26 -15.94,-15.26 -30.44,-30.52 -44.94,-47.48 -2.9,0 -4.35,-1.7 -5.81,-3.39 -2.89,-1.69 -4.34,-5.08 -5.79,-8.48 -500.25,-528.98 -999.05,-1061.36 -1497.85,-1603.91 -2.9,-1.7 -5.8,-3.39 -7.25,-5.09 -37.7,-40.69 -75.4,-81.38 -111.65,-122.07 -8.7,-6.78 -17.4,-15.26 -24.65,-23.73 -421.96,422.16 -835.21,854.51 -1254.25,1291.94 -40.6,42.38 -81.2,86.47 -121.8,127.16 -1.45,1.69 -1.45,1.69 -1.45,1.69 -23.2,23.75 -46.4,49.18 -68.15,74.61z"/>
   <path  d="M2874.92 13162.56c-507.5,6.78 -1015,13.56 -1521.05,20.35 0,801.95 0,1600.52 0,2400.78 0,798.57 0,1598.83 0,2397.4 1273.1,-78 2546.21,-155.99 3819.3,-233.98 1273.09,-77.99 2547.64,-155.98 3822.19,-233.97 -210.24,-698.54 -420.5,-1400.46 -630.74,-2107.47 -210.25,-707 -420.51,-1419.11 -630.75,-2134.6 -100.05,-352.66 -200.1,-707.01 -300.15,-1063.06 -11.6,-205.15 -23.2,-410.3 -34.8,-617.15 18.85,-89.86 37.7,-183.11 58,-274.66 36.25,-94.95 72.5,-191.6 110.2,-288.24 30.45,-55.95 62.34,-110.2 94.25,-167.84 188.5,-261.11 378.45,-544.25 594.5,-774.84 30.45,-30.51 60.89,-61.03 91.35,-93.25 -30.46,-28.82 -60.9,-59.34 -91.35,-88.16 -178.35,220.41 -356.7,437.43 -533.6,657.84 -243.6,330.62 -487.2,664.62 -730.8,998.63 -205.91,289.93 -411.8,579.85 -617.7,868.08 -152.25,-161.07 -303.05,-323.83 -453.85,-486.6 -236.35,257.72 -472.7,518.82 -709.05,779.92 -237.81,-256.01 -475.6,-512.03 -711.95,-773.13 -89.9,100.03 -179.81,200.06 -269.7,298.39 -284.2,235.67 -568.4,469.66 -851.15,707.02 -168.21,69.51 -336.4,140.72 -503.15,208.54z"/>
   <path  d="M9643.52 4441.07c987.45,81.38 1977.8,159.37 2965.25,242.45 111.65,-13.57 223.3,-27.13 336.4,-42.39 52.2,-5.09 50.75,-3.39 92.8,-1.7 36.25,0 72.5,-1.69 108.75,0 8.7,0 17.4,1.7 26.1,1.7 7.25,1.7 14.5,3.39 23.2,5.09 37.7,10.17 72.5,22.04 107.3,33.91 0,1.69 0,1.69 0,1.69 -2.9,33.91 -65.25,252.63 -72.5,286.54 -5.81,20.34 -10.15,54.26 -23.21,67.82 -15.95,15.26 -30.44,28.82 -44.94,42.39 -7.25,5.08 -8.7,8.47 -14.5,16.95 -856.95,795.17 -1703.76,1625.95 -2553.45,2465.21 -10.16,10.17 -50.75,55.95 -60.9,57.64 1.44,-13.56 10.15,-27.12 14.5,-37.29 5.8,-13.57 10.15,-23.74 15.95,-37.3 5.8,-13.57 10.15,-22.05 15.95,-37.31 10.15,-32.21 21.75,-66.12 33.35,-100.02 102.94,-357.75 92.8,-542.56 40.6,-907.08 -2.91,-15.26 -7.25,-30.52 -11.61,-44.09 -15.94,-71.21 -24.65,-98.34 -46.39,-164.46 -2.91,-11.86 -4.35,-13.56 -8.7,-20.34 -1.45,-6.78 -2.91,-13.56 -5.8,-20.35 -39.16,-108.51 -81.2,-193.28 -134.85,-291.62 -21.75,-33.9 -42.05,-66.12 -62.35,-100.03 -20.3,-33.91 -20.3,-32.21 -46.4,-61.04 -381.35,-427.25 -765.6,-854.52 -1145.5,-1290.25 -8.7,-11.87 -84.1,-93.25 -87,-105.12 179.79,15.26 355.25,25.44 537.95,39z"/>
   <path  d="M5917.01 10383.69c-236.34,-262.8 -471.24,-525.6 -706.14,-791.79 -236.35,256.02 -472.7,512.03 -709.06,769.74 233.46,264.5 466.91,525.6 701.81,785.01 237.8,-254.32 475.6,-510.34 713.39,-762.96z"/>

</svg>
